<?xml version="1.0" encoding="UTF-8" standalone="no"?>
<svg
   version="1.2"
   viewBox="0 0 1701 567"
   width="1701"
   height="567"
   id="svg5"
   sodipodi:docname="christman_logo.svg"
   xml:space="preserve"
   inkscape:version="1.4.2 (f4327f4, 2025-05-13)"
   xmlns:inkscape="http://www.inkscape.org/namespaces/inkscape"
   xmlns:sodipodi="http://sodipodi.sourceforge.net/DTD/sodipodi-0.dtd"
   xmlns="http://www.w3.org/2000/svg"
   xmlns:svg="http://www.w3.org/2000/svg"><sodipodi:namedview
     id="namedview5"
     pagecolor="#ffffff"
     bordercolor="#000000"
     borderopacity="0.25"
     inkscape:showpageshadow="2"
     inkscape:pageopacity="0.0"
     inkscape:pagecheckerboard="0"
     inkscape:deskcolor="#d1d1d1"
     inkscape:zoom="0.75740656"
     inkscape:cx="872.05477"
     inkscape:cy="351.85859"
     inkscape:window-width="1920"
     inkscape:window-height="1129"
     inkscape:window-x="-8"
     inkscape:window-y="-8"
     inkscape:window-maximized="1"
     inkscape:current-layer="svg5" /><title
     id="title1">bluesky-logo-dark</title><defs
     id="defs1"><pattern
       id="pattern_ERXsW"
       patternUnits="userSpaceOnUse"
       width="30"
       height="30"
       patternTransform="rotate(45)"><line
         x1="0"
         y="0"
         x2="0"
         y2="30"
         stroke="#EE000A"
         stroke-width="30"
         id="line1" /></pattern></defs><defs
     id="defs2"><linearGradient
       id="g2"
       x2="1"
       gradientUnits="userSpaceOnUse"
       gradientTransform="matrix(-1.0837747,-350.91833,2483.5542,-7.6701992,813.30939,600.45473)"><stop
         offset="0"
         stop-color="#8b181d"
         id="stop1" /><stop
         offset="1"
         stop-color="#ffffff"
         id="stop2" /></linearGradient></defs><defs
     id="defs4"><linearGradient
       id="g3"
       x2="1"
       gradientUnits="userSpaceOnUse"
       gradientTransform="matrix(0,-300.92,2483.566,0,812.206,315.414)"><stop
         offset="0"
         stop-color="#325632"
         id="stop3" /><stop
         offset="1"
         stop-color="#73ae73"
         id="stop4" /></linearGradient></defs><style
     id="style4">
		.s0 { fill: url(#g3) } 
		.s1 { fill: url(#pattern_ERXsW) } 
		.s2 { fill: url(#g2) } 
	</style><path
     id="Path 0"
     fill-rule="evenodd"
     class="s0"
     d="m1255.9 82.6h61.8c33.9 0 61.7 0.4 61.7 1 0 0.6-2.9 8.2-6.6 17-3.6 8.8-7.1 16.8-7.7 17.8-0.7 1.3-8.2 1.7-58 1.7l-1.4 4.5c-0.8 2.5-1.4 4.7-1.4 4.9 0 0.2 11.3 0.4 25 0.4 19.2 0 25.1 0.4 25 1.7 0 0.9-3.1 8.9-13.4 33.7l-51.9 0.7-2.1 4.9c-1.1 2.7-2.1 5.2-2.1 5.5 0 0.4 12.9 0.7 28.6 0.7 21.9 0 28.4 0.4 28.4 1.8-0.1 0.9-3.4 9.2-14.5 35.1h-10.8c-5.9 0-34-0.2-62.3-0.4-33.1-0.2-51.4-0.8-51.4-1.7 0-0.8 10.7-27.2 23.8-58.8 13-31.5 25-60.3 26.5-63.9zm-175.7 0.5l49.8 0.5c36 0.4 52.7 1.1 59.9 2.5 5.6 1.1 11.8 2.9 14 4 2.1 1.1 5.7 3.9 7.9 6.4 3.1 3.2 4.4 6.1 4.8 10.9 0.4 4.9-0.3 8.3-3 14.1-2.1 4.6-6.3 10.1-10.3 13.7-4.1 3.6-10.1 7.1-23.4 11.8l7.5 3.6c4.2 2 8.9 5.4 10.5 7.5 2 2.8 2.8 6.1 2.8 11.2-0.1 5.1-1.1 8.9-3.7 13.4-1.9 3.4-6.3 8.7-9.6 11.6-3.4 2.9-9.9 7.1-14.5 9.3-4.6 2.2-13.3 5.4-19.5 7.1-10.5 3-14 3.2-68.5 3.6-45.1 0.3-57.3 0-57.4-1.3 0-1 11-28.4 24.5-60.9 13.5-32.5 25.3-61.3 26.3-64.1zm46.3 40.2c-1.6 4-2.9 7.8-2.9 8.4 0 0.5 3.9 1 8.7 1 6.2 0 10-0.8 13.2-2.8 2.5-1.5 5.1-4.2 5.8-5.9 1-2.5 0.7-3.6-1.7-5.6-2.2-1.8-5.4-2.5-11.6-2.4h-8.5zm-20 48c-2.1 5.2-3.8 10-3.8 10.8 0 0.9 3.9 1 11.1 0.3 6.1-0.6 13.2-1.9 15.7-2.9 2.5-1.1 5.6-3.1 7-4.5 1.4-1.5 2.3-4.2 2.1-6.1-0.3-2-1.9-4.2-3.9-5.2-1.9-1-8.2-1.8-13.9-1.8h-10.5zm440.2-109.5h32.5c27 0 32.4 0.3 32.1 1.9-0.1 1.1-24.1 19.6-53.1 41.2-29.1 21.6-53.1 39.3-53.3 39.4-0.2 0.1 7.5 15.3 17.1 33.6 9.5 18.4 17.3 34.2 17.3 35.1 0.1 1.4-8.2 1.7-75.2 1.1l-5.5-16.7c-3-9.2-5.8-17-6.1-17.4-0.4-0.4-16.2 11.9-35.1 27.2-19 15.3-36 28.9-38 30.2-3 2.1-7.7 2.4-37.9 2.4-29.2 0-34.3-0.3-34-2 0.2-1.1 26.9-22.1 59.4-46.7 32.5-24.5 59.6-45.4 60.2-46.3 0.7-1-5-13.2-14.2-30.9-8.4-16-14.7-29.6-14.1-30.2 0.6-0.6 17.6-0.9 74.1-0.4l4.1 13.9c2.2 7.7 4.2 14 4.3 14.1 0.2 0.1 15-11 32.9-24.7zm-521.2 20.9c18 0 32.9 0.5 33.2 1 0.2 0.6-11.7 30.3-53.4 131.1h-33.4c-21.3 0-33.3-0.5-33.3-1.4 0-0.7 11.4-29.1 25.5-62.9 14-33.9 26.2-63 27.1-64.7 1.7-3.1 1.9-3.1 34.3-3.1z" /><path
     fill-rule="evenodd"
     class="s1"
     d="m636 445.2h31.7v-202q-1.4-0.6-5.6-1.8-1.1-0.3-2.3-0.6-1.1-0.2-2.2-0.4-1.2-0.1-2.4-0.2-1.1-0.1-2.3 0-1.6-0.1-3.3 0-1.6 0.2-3.2 0.7-1.6 0.4-3.1 1.2-1.5 0.7-2.9 1.7-1.1 1-2 2.3-0.9 1.3-1.5 2.8-0.6 1.5-0.8 3-0.3 1.6-0.1 3.2zm81.1-56.5q0 3.3 0.3 6.5 0.3 3.3 0.9 6.5 0.6 3.2 1.6 6.3 1 3.1 2.3 6.2 1.1 2.7 2.6 5.3 1.5 2.5 3.3 4.9 1.7 2.4 3.7 4.6 2 2.2 4.3 4.2 2.3 2 4.8 3.8 2.6 1.7 5.3 3.2 2.7 1.5 5.5 2.7 2.8 1.2 5.8 2.1 6.7 2 13.6 3 6.9 1 13.9 1 7 0 13.9-1 6.9-1 13.6-3 3-0.9 5.8-2.1 2.9-1.2 5.6-2.7 2.7-1.5 5.2-3.3 2.6-1.7 4.9-3.7 2.3-1.9 4.3-4.1 2-2.2 3.8-4.6 1.7-2.4 3.2-5 1.5-2.6 2.6-5.3 1.3-3.1 2.2-6.2 1-3.1 1.6-6.3 0.6-3.2 0.9-6.5 0.3-3.2 0.2-6.5v-80c-1-0.4-2.9-1-5.6-1.9q-1.2-0.3-2.4-0.5-1.1-0.3-2.3-0.4-1.2-0.2-2.4-0.2-1.2-0.1-2.4-0.1-1.6-0.1-3.2 0.1-1.6 0.2-3.2 0.6-1.5 0.4-3 1.1-1.5 0.7-2.8 1.6-1.2 1.1-2.1 2.4-0.9 1.3-1.5 2.8-0.6 1.4-0.8 3-0.2 1.6-0.1 3.1v61.5q0.3 3.8-0.1 7.7-0.5 3.8-1.6 7.5-1.1 3.7-2.9 7.1-1.8 3.4-4.2 6.4c-3.8 3.2-8.1 5.7-12.8 7.4-4.6 1.6-9.5 2.5-14.5 2.5-4.9 0-9.8-0.9-14.4-2.5-4.7-1.7-9-4.2-12.8-7.4q-2.4-3-4.2-6.4-1.8-3.4-2.9-7.1-1.2-3.7-1.6-7.5-0.4-3.9-0.2-7.7v-73.1c-1-0.4-2.9-1-5.6-1.9q-1.1-0.3-2.3-0.5-1.1-0.3-2.3-0.4-1.1-0.2-2.3-0.2-1.1-0.1-2.3-0.1-1.6-0.1-3.3 0.1-1.6 0.1-3.2 0.6-1.6 0.4-3.1 1.1-1.5 0.7-2.9 1.6-1.2 1.1-2.1 2.4-0.9 1.3-1.4 2.8-0.6 1.4-0.9 3-0.2 1.6 0 3.1zm295.3 24.2l-5.1 2.5q-1 0.4-2.1 0.9-1 0.4-2 0.9-1.1 0.4-2.1 0.8-1.1 0.3-2.2 0.7-1.3 0.4-2.7 0.8-1.3 0.4-2.7 0.8-1.4 0.3-2.8 0.6-1.3 0.3-2.7 0.6-1.7 0.3-3.3 0.5-1.7 0.2-3.4 0.3-1.6 0.2-3.3 0.2-1.7 0.1-3.4 0.1-4.3 0.3-8.6-0.2-4.4-0.4-8.6-1.5-4.2-1.1-8.1-2.9-4-1.8-7.6-4.2-2.8-2-5.1-4.5-2.3-2.6-4.1-5.5-1.8-3-3-6.2-1.1-3.3-1.6-6.7l10.4 0.4h10.4q5 0.1 9.9-0.1 5-0.1 10-0.5 4.9-0.4 9.8-1.1 5-0.6 9.9-1.5 3.2-0.6 6.4-1.5 3.2-0.9 6.4-2 3.1-1.1 6.1-2.6 3-1.4 5.9-3 2-1.2 3.9-2.7 1.8-1.5 3.5-3.2 1.6-1.7 2.9-3.7 1.4-1.9 2.4-4 0.9-2.1 1.6-4.3 0.7-2.1 1.2-4.4 0.4-2.2 0.7-4.4 0.2-2.3 0.1-4.6 0.1-4.6-0.9-9.2-1-4.5-3-8.7-2-4.3-4.9-7.9-2.9-3.7-6.6-6.6-2.1-1.6-4.3-3.1-2.3-1.4-4.6-2.7-2.4-1.3-4.8-2.3-2.5-1-5-1.9-3.1-0.9-6.3-1.7-3.2-0.7-6.4-1.2-3.2-0.4-6.4-0.6-3.3-0.2-6.5-0.2-3.9 0-7.8 0.3-3.8 0.4-7.6 1.1-3.8 0.7-7.5 1.8-3.7 1.1-7.3 2.5-3.3 1.3-6.5 2.9-3.2 1.6-6.2 3.5-3 1.9-5.8 4.2-2.9 2.2-5.4 4.7-2.6 2.5-4.9 5.2-2.3 2.8-4.2 5.8-2 2.9-3.7 6.1-1.7 3.2-3 6.5-1.5 3.6-2.6 7.4-1.1 3.7-1.8 7.5-0.7 3.9-1 7.8-0.3 3.9-0.3 7.8-0.1 3.9 0.2 7.9 0.3 3.9 1 7.8 0.8 3.9 1.9 7.7 1.1 3.8 2.6 7.5 1.3 3.2 3 6.3 1.7 3 3.8 5.9 2 2.8 4.3 5.4 2.3 2.7 4.9 5 2.5 2.4 5.3 4.4 2.8 2.1 5.7 3.8 3 1.8 6.2 3.3 3.1 1.4 6.4 2.5 3.5 1.2 7.1 2.1 3.5 1 7.2 1.5 3.6 0.6 7.3 0.9 3.7 0.3 7.4 0.3 2.6 0 5.2-0.1 2.5-0.1 5.1-0.3 2.5-0.2 5.1-0.5 2.5-0.4 5.1-0.8 2-0.4 4.1-0.8 2.1-0.4 4.1-0.9 2.1-0.5 4.1-1 2-0.6 4.1-1.2 1.5-0.5 3-1 1.5-0.5 3-1.1 1.4-0.6 2.9-1.3 1.5-0.6 2.9-1.4 4.7-2.4 6.9-3.9zm-85.6-47.8q0.2-1.9 0.6-3.9 0.4-2 1-3.9 0.5-1.9 1.2-3.7 0.7-1.9 1.6-3.8 0.9-1.8 1.9-3.5 1-1.7 2.2-3.4 1.2-1.6 2.5-3.1 1.4-1.6 2.9-2.9 1.5-1.4 3.2-2.6 1.6-1.2 3.4-2.3 1.7-1 3.6-1.8 2.1-1 4.3-1.7 2.2-0.7 4.5-1.1 2.3-0.5 4.6-0.7 2.3-0.2 4.7-0.2 2.7-0.1 5.4 0.2 2.8 0.3 5.4 1 2.7 0.7 5.2 1.7 2.6 1 4.9 2.4 2.1 1.2 3.7 2.9 1.6 1.8 2.8 3.8 1.1 2.1 1.6 4.4 0.5 2.4 0.4 4.7 0 1.1-0.1 2.1-0.1 1-0.3 2-0.2 1.1-0.5 2.1-0.3 0.9-0.7 1.9-0.6 1.1-1.4 2-0.7 0.9-1.6 1.8-0.9 0.8-1.9 1.5-0.9 0.6-2 1.1-1.8 1-3.6 1.7-1.8 0.8-3.6 1.4-1.9 0.7-3.8 1.2-1.8 0.4-3.8 0.8-3 0.5-6.1 0.9-3.1 0.4-6.2 0.6-3.1 0.3-6.2 0.4-3.1 0.1-6.2 0c-3.9 0-19.7 0-23.9 0q0.1-2 0.3-4zm134.3 66.9q0.9 0.6 1.8 1.2 0.8 0.5 1.7 1.1 1 0.5 1.9 1 0.9 0.4 1.9 0.9 1.7 0.8 3.5 1.6 1.8 0.8 3.6 1.5 1.9 0.7 3.7 1.3 1.9 0.7 3.7 1.2 2.7 0.8 5.3 1.6 2.6 0.7 5.3 1.3 2.6 0.7 5.3 1.2 2.7 0.6 5.4 1.1 3.4 0.5 6.8 1 3.3 0.4 6.8 0.7 3.4 0.3 6.8 0.4 3.4 0.1 6.8 0.1 31.1 0 47.7-12.5c2.6-1.9 5-4.1 7.1-6.6 2.1-2.4 3.9-5.1 5.3-8 1.4-2.9 2.5-6 3.2-9.1 0.7-3.2 1-6.4 0.9-9.7q0.3-4-0.5-8-0.7-4-2.3-7.7-1.7-3.7-4.2-6.9-2.5-3.1-5.8-5.6-3.9-2.7-8.2-4.9-4.3-2.1-8.9-3.7-4.5-1.6-9.2-2.6-4.7-1.1-9.5-1.5l-28.2-3.6q-2.3-0.2-4.6-0.6-2.3-0.4-4.5-1-2.2-0.7-4.3-1.6-2.1-0.8-4.1-1.9-1.5-0.8-2.7-2-1.2-1.2-2-2.7-0.9-1.5-1.2-3.1-0.4-1.6-0.4-3.3 0-17 32.3-17 2.6 0 5.2 0.1 2.6 0.1 5.1 0.3 2.6 0.3 5.2 0.6 2.5 0.4 5.1 0.9 1.9 0.3 3.8 0.8 2 0.4 3.9 1 1.9 0.5 3.8 1.1 1.9 0.6 3.7 1.2 1.4 0.5 2.7 1 1.3 0.6 2.5 1.1 1.3 0.6 2.5 1.3 1.3 0.7 2.5 1.4 0.6 0.4 1.3 0.8 0.6 0.4 1.2 0.8 0.6 0.5 1.2 0.9 0.6 0.5 1.2 1 0.3-0.2 0.6-0.3 0.3-0.2 0.7-0.4 0.3-0.2 0.6-0.4 0.3-0.2 0.5-0.4 0.5-0.4 0.9-0.8 0.5-0.3 0.9-0.7 0.4-0.5 0.7-0.9 0.4-0.4 0.8-0.9 0.4-0.5 0.7-1 0.4-0.6 0.8-1.1 0.3-0.6 0.6-1.2 0.3-0.5 0.6-1.1 0.3-0.7 0.6-1.4 0.2-0.7 0.4-1.4 0.1-0.7 0.2-1.4 0.1-0.7 0.1-1.5 0-10.5-16-16.9-5.4-1.8-11-3.2-5.5-1.3-11.2-2.1-5.6-0.8-11.3-1.1-5.7-0.3-11.4 0-3.7-0.1-7.4 0.1-3.7 0.2-7.4 0.6-3.6 0.5-7.3 1.2-3.6 0.6-7.2 1.6-2.7 0.7-5.3 1.6-2.5 1-5 2.2-2.5 1.2-4.8 2.7-2.3 1.4-4.5 3.1-1.8 1.4-3.4 3-1.6 1.6-2.9 3.3-1.4 1.8-2.6 3.7-1.2 2-2.1 4-0.9 2-1.5 4.1-0.7 2.1-1.1 4.2-0.5 2.1-0.7 4.3-0.2 2.2-0.2 4.4 0 2.2 0.2 4.5 0.2 2.3 0.6 4.5 0.5 2.2 1.2 4.4 0.8 2.1 1.7 4.2 1 1.8 2.1 3.5 1.2 1.8 2.6 3.3 1.3 1.6 2.8 3 1.5 1.4 3.2 2.6 1.8 1.3 3.8 2.5 1.9 1.2 3.9 2.2 2 1 4.1 1.8 2.1 0.8 4.2 1.4 2.5 0.8 5 1.4 2.6 0.7 5.1 1.2 2.6 0.5 5.1 0.8 2.6 0.4 5.2 0.6l21.7 2.5q2.7 0.1 5.4 0.6 2.7 0.4 5.4 1.1 2.6 0.7 5.1 1.7 2.6 1 5 2.3 1.4 1 2.5 2.3 1.1 1.3 1.8 2.9 0.8 1.5 1.1 3.2 0.3 1.7 0.2 3.4 0.1 2.1-0.5 4.2-0.7 2-1.9 3.8-1.2 1.7-3 3-1.7 1.3-3.7 1.9-2.9 1.1-5.8 1.8-2.9 0.8-5.9 1.2-2.9 0.5-5.9 0.7-3 0.2-6.1 0.1-2.5 0-5.1-0.1-2.6-0.1-5.2-0.3-2.6-0.2-5.1-0.5-2.6-0.3-5.1-0.8-2.2-0.3-4.3-0.8-2.1-0.4-4.3-0.9-2.1-0.5-4.2-1.1-2.1-0.5-4.2-1.2-1.6-0.5-3.1-1-1.6-0.5-3.1-1.1-1.6-0.6-3.1-1.2-1.5-0.6-3.1-1.3-0.9-0.3-1.8-0.8-0.8-0.4-1.7-0.8-0.9-0.5-1.7-1-0.9-0.5-1.7-1zm176.5 13.3h31.7v-63.1q8.6 6.4 17.9 14.1 9.3 7.7 18.3 15.9 9.1 8.5 17 16.9 7.9 8.5 14.3 16.3h39.6q-3.8-5.1-7.8-10.1-3.9-5-8-9.8-4.1-4.9-8.4-9.6-4.2-4.7-8.6-9.3-4.9-5.3-10.1-10.3-5.1-5.1-10.4-9.9-5.4-4.8-10.9-9.4-5.5-4.6-11.3-8.9 4.2-3 13.6-9.5 9.5-6.5 20-14.2 10.4-7.6 20.7-15.2 10.4-7.7 16-12.9-0.6-1-1.4-2-0.7-0.9-1.6-1.7-0.8-0.9-1.7-1.7-1-0.7-2-1.4-1.3-1-2.9-1.8-1.5-0.8-3.1-1.3-1.6-0.5-3.3-0.7-1.7-0.3-3.4-0.2-1.7-0.1-3.4 0.1-1.6 0.1-3.3 0.4-1.6 0.3-3.2 0.7-1.6 0.5-3.2 1.2-1.5 0.7-2.9 1.5-1.5 0.7-2.9 1.6-1.4 0.8-2.8 1.8-1.4 0.9-2.7 1.8-7.8 5.6-16.4 12l-16.9 12.2-14.5 10.9q-6.5 4.8-10.2 7.3v-113.7q-1.4-0.5-5.6-1.8-1.1-0.3-2.3-0.5-1.1-0.3-2.2-0.4-1.2-0.2-2.3-0.3-1.2 0-2.4 0-1.6-0.1-3.3 0.1-1.6 0.2-3.2 0.6-1.6 0.5-3.1 1.2-1.5 0.7-2.9 1.7-1.1 1.1-2 2.4-1 1.2-1.5 2.7-0.6 1.5-0.8 3.1-0.3 1.5-0.1 3.1zm168.8-55.7q-0.1 3.1 0.1 6.2 0.3 3 0.8 6.1 0.5 3 1.4 6 0.8 2.9 2 5.8 1 2.5 2.4 4.9 1.3 2.4 2.9 4.6 1.6 2.2 3.4 4.2 1.9 2.1 3.9 3.9 2.2 1.8 4.5 3.5 2.4 1.6 4.9 2.9 2.5 1.4 5.1 2.5 2.7 1.1 5.4 1.9 3 1 6.1 1.7 3 0.7 6.1 1.2 3.2 0.5 6.3 0.7 3.1 0.2 6.3 0.2 3.3 0 6.6-0.3 3.3-0.3 6.6-0.9 3.3-0.6 6.5-1.5 3.2-1 6.3-2.2 2.5-0.9 5-2.2 2.4-1.4 4.6-3 2.2-1.6 4.1-3.6 2-1.9 3.6-4.1 0.1 3-0.1 6-0.2 3.1-0.6 6.1-0.4 3-1 6-0.6 3-1.5 5.9-0.7 2.2-1.7 4.2-0.9 2.1-2.2 4.1-1.2 1.9-2.6 3.7-1.4 1.8-3.1 3.4-1.5 1.5-3.2 2.7-1.7 1.3-3.5 2.3-1.9 1.1-3.8 1.9-2 0.8-4 1.3-2.4 0.6-4.8 1.1-2.4 0.4-4.9 0.7-2.4 0.3-4.9 0.5-2.4 0.1-4.9 0.1-1.9 0-3.9-0.1-2 0-3.9-0.1-2-0.1-4-0.3-1.9-0.2-3.9-0.4-7.6-0.8-13.2-2.1-1.3-0.2-2.5-0.5-1.3-0.3-2.5-0.7-1.3-0.3-2.5-0.7-1.3-0.3-2.5-0.7-4.2-1.4-6.1-2.2-1.9 5.6-3.9 11.8-2 6.1-4.2 11.8 1.9 0.8 6.7 2.4 4.5 1.5 12.1 3.2 7.5 1.7 16.9 2.9 2.6 0.4 5.2 0.6 2.6 0.2 5.2 0.4 2.6 0.2 5.2 0.2 2.7 0.1 5.3 0.1 3.8 0 7.6-0.2 3.9-0.2 7.7-0.7 3.8-0.5 7.5-1.3 3.8-0.8 7.5-1.8c4.3-1.2 8.6-3 12.5-5.2 4-2.2 7.7-4.8 11-7.9 3.3-3.1 6.3-6.6 8.8-10.4 2.5-3.8 4.5-7.9 6-12.1q1.4-4.1 2.5-8.2 1-4.1 1.7-8.4 0.6-4.2 0.9-8.4 0.3-4.3 0.2-8.5v-122q-1.4-0.6-5.7-1.8-1.1-0.3-2.3-0.6-1.1-0.2-2.3-0.3-1.2-0.2-2.3-0.3-1.2-0.1-2.4 0-1.6-0.1-3.2 0.1-1.7 0.1-3.2 0.6-1.6 0.5-3 1.2-1.5 0.7-2.8 1.7-1.2 1-2.1 2.3-0.9 1.3-1.5 2.8-0.6 1.5-0.8 3-0.2 1.6-0.1 3.2v59.4q0.3 4-0.2 7.9-0.4 3.9-1.7 7.6-1.3 3.8-3.2 7.2-2 3.4-4.6 6.4-2.6 2.5-5.7 4.5-3.2 1.9-6.6 3.2-3.4 1.3-7.1 1.8-3.6 0.6-7.3 0.4-3.7 0.3-7.4-0.2-3.6-0.5-7.1-1.8-3.5-1.2-6.7-3.2-3.2-2-5.8-4.6-2.3-2.7-4-5.8-1.8-3-2.9-6.4-1.1-3.3-1.6-6.8-0.5-3.5-0.3-7.1v-74.4q-1.3-0.6-5.6-1.8-1.2-0.3-2.3-0.6-1.2-0.2-2.4-0.3-1.1-0.2-2.3-0.3-1.2-0.1-2.4 0-1.6-0.1-3.2 0.1-1.6 0.1-3.2 0.6-1.5 0.5-3 1.2-1.5 0.7-2.8 1.7-1.1 1-2.1 2.3-0.9 1.3-1.4 2.8-0.6 1.5-0.8 3-0.3 1.6-0.1 3.2zm-880.4-46.5q-1.4-1.5-3-2.9-1.6-1.3-3.3-2.5-1.7-1.2-3.5-2.2-1.9-1-3.8-1.9-2-0.8-4.2-1.5-2.1-0.7-4.3-1.1-2.2-0.5-4.4-0.7-2.2-0.2-4.4-0.2-2.3 0-4.6 0.2-2.2 0.2-4.4 0.7-2.2 0.4-4.4 1.1-2.2 0.6-4.3 1.5-1.9 0.9-3.7 1.9-1.8 1-3.5 2.2-1.7 1.2-3.3 2.6-1.6 1.4-3 2.9-1.4 1.6-2.7 3.3-1.2 1.7-2.3 3.6-1.1 1.8-2.1 3.7-0.9 1.9-1.6 3.9-0.8 2.1-1.4 4.3-0.7 2.2-1.1 4.5-0.4 2.2-0.6 4.5-0.2 2.2-0.1 4.5-0.1 2.4 0.1 4.7 0.2 2.3 0.6 4.6 0.4 2.3 1 4.6 0.7 2.3 1.5 4.5 1.4 3.9 3.6 7.5 2.3 3.5 5.2 6.5 2.9 3.1 6.4 5.4 3.5 2.3 7.4 3.9 2 0.9 4.2 1.5 2.1 0.6 4.3 1.1 2.2 0.4 4.4 0.6 2.2 0.2 4.4 0.1 2.3 0.1 4.5-0.1 2.2-0.3 4.4-0.7 2.2-0.4 4.3-1.1 2.1-0.7 4.2-1.6 1.9-0.8 3.7-1.8 1.8-1 3.6-2.2 1.7-1.2 3.3-2.5 1.5-1.4 3-2.9 1.4-1.5 2.7-3.2 1.3-1.7 2.4-3.4 1.1-1.8 2-3.7 0.9-1.9 1.7-3.9 0.7-2.1 1.3-4.3 0.6-2.2 1-4.5 0.4-2.3 0.5-4.5 0.2-2.3 0.2-4.6 0-2.3-0.2-4.6-0.1-2.3-0.5-4.6-0.4-2.2-1-4.5-0.6-2.2-1.3-4.4-0.8-2-1.7-3.9-0.9-1.9-2-3.7-1.1-1.8-2.4-3.5-1.3-1.7-2.8-3.2zm-27.1-64.5h-4.1c-6.5-31.9-22.6-61.1-46.2-83.6-23.6-22.5-53.6-37.2-85.8-42.1-32.2-4.9-65.1 0.1-94.4 14.5-29.2 14.4-53.3 37.5-69.1 66-30.9 0.9-60.2 14-81.6 36.3-21.4 22.3-33.2 52.2-32.8 83.1 0.3 31 12.8 60.5 34.8 82.3 21.9 21.8 51.6 34.1 82.5 34.3h296.7c25.3 0 49.6-10 67.5-28 17.9-17.9 28-42.2 28-67.5 0-25.3-10.1-49.6-28-67.6-17.9-17.9-42.2-27.9-67.5-27.9zm66.2 126.3q-1.3 3.3-2.9 6.4-1.7 3.2-3.6 6.1-2 2.9-4.2 5.7-2.3 2.7-4.8 5.2-2.6 2.4-5.4 4.6-2.7 2.3-5.7 4.2-3 1.9-6.2 3.5-3.2 1.7-6.5 3-3.6 1.4-7.3 2.5-3.7 1.1-7.5 1.8-3.8 0.7-7.7 1-3.8 0.4-7.7 0.3-3.8 0.1-7.6-0.2-3.9-0.3-7.7-1-3.8-0.6-7.5-1.6-3.7-0.9-7.3-2.2-3.4-1.2-6.6-2.8-3.1-1.5-6.1-3.4-3-1.9-5.8-4.2-2.8-2.2-5.3-4.7-2.6-2.7-4.9-5.6-2.2-2.9-4.2-6.1-2-3.1-3.6-6.5-1.6-3.3-2.8-6.8-1.5-4.3-2.6-8.6-1.1-4.4-1.8-8.8-0.7-4.5-1-9-0.3-4.4-0.3-8.9v-113.7q-0.1-1.6 0.1-3.1 0.2-1.6 0.8-3.1 0.6-1.4 1.5-2.7 0.9-1.3 2.1-2.4 1.3-1 2.8-1.7 1.5-0.7 3.1-1.2 1.6-0.4 3.3-0.6 1.6-0.2 3.3-0.1 1.1 0 2.3 0.1 1.2 0 2.3 0.2 1.2 0.1 2.3 0.4 1.1 0.2 2.2 0.5 4.2 1.3 5.7 1.9v79.9q1.9-2.4 4.1-4.5 2.2-2.2 4.6-4.1 2.5-1.9 5.1-3.6 2.6-1.6 5.3-2.9 3.3-1.7 6.8-2.9 3.4-1.2 7-2 3.6-0.8 7.2-1.1 3.6-0.4 7.3-0.3 3.6 0 7.2 0.3 3.7 0.4 7.2 1.1 3.6 0.7 7 1.8 3.5 1 6.9 2.4 3.1 1.4 6.2 3 3 1.6 5.8 3.5 2.9 2 5.5 4.2 2.7 2.2 5.1 4.7 2.4 2.5 4.6 5.2 2.1 2.8 4 5.7 1.9 2.9 3.5 6 1.6 3.1 2.9 6.4 1.4 3.5 2.5 7.2 1 3.6 1.7 7.3 0.8 3.8 1.1 7.5 0.4 3.8 0.3 7.6 0 3.8-0.4 7.5-0.4 3.7-1.2 7.4-0.8 3.7-1.9 7.3-1.2 3.6-2.6 7z"
     id="path4" /><path
     id="path5"
     class="s2"
     d="m 230.46959,234.23901 c -3.29781,0.7102 -9.79038,3.13027 -14.48355,5.34477 -4.69349,2.1145 -10.78326,5.43332 -13.4777,7.24165 -2.79411,1.90864 -7.88113,6.12438 -11.2706,9.53485 -3.4898,3.3108 -8.17279,8.82529 -10.46259,12.13237 -2.1898,3.30679 -6.16754,10.51911 -8.75054,16.02711 -2.68299,5.50831 -5.46075,12.71693 -6.35055,16.01969 -0.78982,3.30245 -1.47838,7.00459 -1.47468,8.2046 0.004,1.29998 0.4068,2.19875 0.90617,1.9972 0.59969,-0.10185 4.68485,-4.91448 9.26691,-10.72867 4.58207,-5.81418 9.06414,-11.62805 9.95981,-13.03082 0.99568,-1.40308 1.99288,-2.30616 2.19382,-2.00679 0.30091,0.29908 0.1071,2.29968 -0.3861,4.50121 -0.49321,2.20154 -0.98178,5.90307 -0.97468,8.20306 0.007,2.39999 0.41606,5.19874 1.01946,6.29688 0.50339,1.09844 1.70616,1.99474 2.50615,1.99227 0.80001,-0.002 2.59536,-1.50802 3.8898,-3.31204 1.29474,-1.704 3.78021,-6.4117 5.66848,-10.21754 2.38454,-5.00739 5.67093,-9.41756 11.35299,-15.23514 4.68515,-4.81449 9.87216,-9.03052 12.46844,-10.23856 3.39504,-1.61049 6.59348,-2.12036 12.99346,-2.14013 4.69998,-0.0147 11.20209,0.66541 14.50487,1.55521 3.30245,0.7898 8.50736,2.37374 11.51107,3.56446 3.00337,1.09073 7.70952,3.07621 10.51384,4.46755 2.70431,1.39166 7.91694,5.47557 11.52836,9.16445 3.6111,3.58886 9.13207,10.37184 12.24656,15.06225 3.11452,4.6904 8.34259,13.7743 11.76234,20.16376 l 6.13641,11.78111 c -21.00045,32.26502 -29.65841,45.89181 -32.84233,51.10167 -3.08393,5.20955 -8.65271,15.32679 -12.23045,22.53788 -3.57806,7.11108 -8.54654,17.32647 -10.93046,22.53387 -2.38394,5.20738 -5.86292,12.01816 -7.85363,15.02432 -1.89073,3.00585 -5.57652,7.61726 -8.16847,10.22528 -2.49165,2.7077 -8.6768,7.52683 -13.56659,10.84196 -4.98977,3.31541 -8.9808,6.22775 -8.97987,6.52776 9.7e-4,0.29999 28.30141,0.41259 63.00124,0.30538 l 62.99971,-0.19456 c -8.3537,-17.37428 -11.67717,-24.96405 -12.58643,-27.96126 -1.00926,-2.9969 -1.92531,-8.19409 -1.93549,-11.49408 -0.0112,-3.49997 0.87188,-9.10272 2.15889,-13.30673 1.18796,-3.90368 2.8756,-7.90891 3.67314,-8.71139 0.79751,-0.80246 4.79224,-2.5148 8.68883,-3.62684 3.99627,-1.21235 14.08943,-3.44353 22.28475,-4.96885 8.19503,-1.62532 17.88911,-3.55527 21.48663,-4.36638 3.5972,-0.91111 8.49254,-2.42624 10.88944,-3.43365 2.6966,-1.10833 4.89103,-2.91512 5.68577,-4.61758 0.79536,-1.50246 1.38732,-4.10431 1.38239,-5.70429 -0.005,-1.7 -0.61297,-4.19814 -1.4179,-5.79566 -0.70463,-1.49782 -3.81728,-5.58823 -6.72839,-9.17926 -3.01111,-3.59072 -12.14163,-13.46256 -20.46784,-21.9369 -8.32621,-8.47431 -17.95953,-19.24462 -21.57403,-23.93348 -3.51449,-4.68917 -8.63887,-12.57337 -11.15399,-17.46564 -2.61543,-4.99194 -6.2327,-10.58079 -7.93856,-12.47553 -1.80586,-1.89443 -3.61388,-4.48887 -4.11789,-5.78731 -0.5037,-1.19846 -0.91019,-3.29722 -0.91452,-4.69721 -0.004,-1.39998 -0.71203,-3.89781 -1.51698,-5.49533 -1.10679,-2.1966 -2.50987,-3.19227 -5.31172,-3.78362 -3.20214,-0.69011 -4.0046,-1.48763 -6.3191,-6.18051 -1.71081,-3.49473 -5.12438,-7.88422 -9.53702,-11.9706 -4.71388,-4.48546 -8.5222,-7.17372 -11.92589,-8.36321 -2.80277,-0.89135 -6.808,-2.57899 -9.01169,-3.77219 -2.20339,-1.0932 -5.40831,-2.68331 -7.01108,-3.57836 -1.70247,-0.79476 -6.40645,-2.08022 -10.5086,-2.76756 -4.10214,-0.68734 -13.60396,-1.258 -21.00392,-1.23514 -7.39996,0.0233 -16.19806,0.65003 -19.4959,1.36021 z"
     style="fill:url(#g2)" /></svg>
